<?xml version="1.0" standalone="no"?>
<!DOCTYPE svg PUBLIC "-//W3C//DTD SVG 20010904//EN"
 "http://www.w3.org/TR/2001/REC-SVG-20010904/DTD/svg10.dtd">
<svg version="1.0" xmlns="http://www.w3.org/2000/svg"
 width="260.000000pt" height="260.000000pt" viewBox="0 0 260.000000 260.000000"
 preserveAspectRatio="xMidYMid meet">
<metadata>
Created by potrace 1.11, written by Peter Selinger 2001-2013
</metadata>
<g transform="translate(0.000000,260.000000) scale(0.100000,-0.100000)"
fill="#000000" stroke="none">
<path d="M2418 2504 c-4 -4 -801 -252 -832 -259 -10 -2 -35 -10 -55 -17 -20
-7 -38 -13 -41 -13 -3 0 -43 -13 -90 -27 -75 -24 -156 -49 -460 -143 -41 -13
-135 -42 -208 -64 -72 -23 -192 -59 -265 -82 -72 -22 -168 -52 -212 -66 -44
-13 -98 -30 -120 -37 l-40 -12 -3 -72 c-2 -63 0 -72 15 -73 10 0 25 -2 33 -3
8 -2 40 -6 70 -10 30 -4 102 -13 160 -22 133 -19 155 -22 210 -29 25 -3 61 -8
80 -11 19 -3 53 -7 75 -10 22 -2 85 -11 140 -19 55 -8 123 -17 150 -20 28 -4
61 -8 75 -10 14 -2 63 -9 110 -15 47 -6 96 -13 110 -15 14 -3 50 -7 80 -11 30
-3 56 -7 57 -8 1 -1 29 -188 39 -261 2 -22 7 -51 9 -65 2 -14 7 -43 9 -65 3
-22 12 -87 20 -145 9 -58 25 -175 36 -260 12 -85 23 -166 25 -180 2 -14 7 -47
10 -75 4 -27 10 -77 15 -110 5 -33 12 -80 15 -105 3 -25 8 -54 10 -65 2 -11 4
-23 4 -26 1 -4 30 -7 66 -8 52 -1 66 2 73 16 5 10 38 110 72 223 34 113 75
246 90 295 16 50 45 144 65 210 74 243 116 381 125 405 4 14 23 72 40 130 17
58 44 146 60 195 34 107 83 266 86 280 1 6 21 71 44 145 23 74 50 162 60 195
10 33 32 104 49 159 35 113 36 116 17 141 -12 16 -68 30 -78 19z"/>
</g>
</svg>
